<mxfile host="app.diagrams.net" modified="2024-03-25T17:36:17.548Z" agent="Mozilla/5.0 (Windows NT 10.0; Win64; x64) AppleWebKit/537.36 (KHTML, like Gecko) Chrome/123.0.0.0 Safari/537.36" etag="fBHbCZPjt0B9Ew1KWQFS" version="24.1.0" type="device">
  <diagram name="Page-1" id="BiyTJAOcuI-myTODdpJ7">
    <mxGraphModel dx="653" dy="714" grid="1" gridSize="10" guides="1" tooltips="1" connect="1" arrows="1" fold="1" page="1" pageScale="1" pageWidth="850" pageHeight="1100" math="0" shadow="0">
      <root>
        <mxCell id="0" />
        <mxCell id="1" parent="0" />
        <mxCell id="MAbu34ratZvczZtb9zTz-3" value="User" style="swimlane;childLayout=stackLayout;horizontal=1;startSize=50;horizontalStack=0;rounded=1;fontSize=14;fontStyle=0;strokeWidth=2;resizeParent=0;resizeLast=1;shadow=0;dashed=0;align=center;arcSize=4;whiteSpace=wrap;html=1;" parent="1" vertex="1">
          <mxGeometry x="340" y="190" width="160" height="140" as="geometry" />
        </mxCell>
        <mxCell id="MAbu34ratZvczZtb9zTz-4" value="&lt;b&gt;UserID: PK&lt;/b&gt;&lt;div&gt;Name&lt;/div&gt;&lt;div&gt;Contacts&lt;/div&gt;&lt;div&gt;Description&lt;/div&gt;&lt;div&gt;UserType: Hiker/Rescuer&lt;/div&gt;" style="align=left;strokeColor=none;fillColor=none;spacingLeft=4;fontSize=12;verticalAlign=top;resizable=0;rotatable=0;part=1;html=1;" parent="MAbu34ratZvczZtb9zTz-3" vertex="1">
          <mxGeometry y="50" width="160" height="90" as="geometry" />
        </mxCell>
        <mxCell id="e3_FNbKswb6onqGiZk8q-14" value="Route" style="swimlane;childLayout=stackLayout;horizontal=1;startSize=50;horizontalStack=0;rounded=1;fontSize=14;fontStyle=0;strokeWidth=2;resizeParent=0;resizeLast=1;shadow=0;dashed=0;align=center;arcSize=4;whiteSpace=wrap;html=1;" vertex="1" parent="1">
          <mxGeometry x="100" y="110" width="160" height="160" as="geometry" />
        </mxCell>
        <mxCell id="e3_FNbKswb6onqGiZk8q-15" value="&lt;b&gt;RouteID: PK&lt;/b&gt;&lt;div&gt;&lt;b&gt;UserID: FK&lt;/b&gt;&lt;/div&gt;&lt;div&gt;StartLocation&lt;/div&gt;&lt;div&gt;EndLocation&lt;/div&gt;&lt;div&gt;RouteData&lt;/div&gt;&lt;div&gt;DateCreated&lt;/div&gt;&lt;div&gt;PlannedFor&lt;/div&gt;" style="align=left;strokeColor=none;fillColor=none;spacingLeft=4;fontSize=12;verticalAlign=top;resizable=0;rotatable=0;part=1;html=1;" vertex="1" parent="e3_FNbKswb6onqGiZk8q-14">
          <mxGeometry y="50" width="160" height="110" as="geometry" />
        </mxCell>
        <mxCell id="e3_FNbKswb6onqGiZk8q-16" value="LiveTrack" style="swimlane;childLayout=stackLayout;horizontal=1;startSize=50;horizontalStack=0;rounded=1;fontSize=14;fontStyle=0;strokeWidth=2;resizeParent=0;resizeLast=1;shadow=0;dashed=0;align=center;arcSize=4;whiteSpace=wrap;html=1;" vertex="1" parent="1">
          <mxGeometry x="100" y="330" width="160" height="160" as="geometry" />
        </mxCell>
        <mxCell id="e3_FNbKswb6onqGiZk8q-17" value="&lt;b&gt;TrackID: PK&lt;/b&gt;&lt;div&gt;&lt;b&gt;RouteID: FK (Optional)&lt;/b&gt;&lt;/div&gt;&lt;div&gt;&lt;b&gt;UserID: FK&lt;/b&gt;&lt;/div&gt;&lt;div&gt;StartTime&lt;/div&gt;&lt;div&gt;EndTime&lt;/div&gt;&lt;div&gt;TrackData&lt;/div&gt;&lt;div&gt;PerformanceInfo&lt;/div&gt;" style="align=left;strokeColor=none;fillColor=none;spacingLeft=4;fontSize=12;verticalAlign=top;resizable=0;rotatable=0;part=1;html=1;" vertex="1" parent="e3_FNbKswb6onqGiZk8q-16">
          <mxGeometry y="50" width="160" height="110" as="geometry" />
        </mxCell>
        <mxCell id="e3_FNbKswb6onqGiZk8q-20" value="POI" style="swimlane;childLayout=stackLayout;horizontal=1;startSize=50;horizontalStack=0;rounded=1;fontSize=14;fontStyle=0;strokeWidth=2;resizeParent=0;resizeLast=1;shadow=0;dashed=0;align=center;arcSize=4;whiteSpace=wrap;html=1;" vertex="1" parent="1">
          <mxGeometry x="600" y="230" width="160" height="150" as="geometry" />
        </mxCell>
        <mxCell id="e3_FNbKswb6onqGiZk8q-21" value="&lt;b&gt;POIID: PK&lt;/b&gt;&lt;div&gt;&lt;b&gt;UserID: FK&lt;/b&gt;&lt;br&gt;&lt;div&gt;Name&lt;/div&gt;&lt;div&gt;Location&lt;/div&gt;&lt;div&gt;Description&lt;/div&gt;&lt;div&gt;Category&lt;/div&gt;&lt;/div&gt;" style="align=left;strokeColor=none;fillColor=none;spacingLeft=4;fontSize=12;verticalAlign=top;resizable=0;rotatable=0;part=1;html=1;" vertex="1" parent="e3_FNbKswb6onqGiZk8q-20">
          <mxGeometry y="50" width="160" height="100" as="geometry" />
        </mxCell>
        <mxCell id="e3_FNbKswb6onqGiZk8q-22" value="Alert" style="swimlane;childLayout=stackLayout;horizontal=1;startSize=50;horizontalStack=0;rounded=1;fontSize=14;fontStyle=0;strokeWidth=2;resizeParent=0;resizeLast=1;shadow=0;dashed=0;align=center;arcSize=4;whiteSpace=wrap;html=1;" vertex="1" parent="1">
          <mxGeometry x="600" y="30" width="160" height="160" as="geometry" />
        </mxCell>
        <mxCell id="e3_FNbKswb6onqGiZk8q-23" value="&lt;b&gt;AlertID: PK&lt;/b&gt;&lt;div&gt;&lt;b&gt;UserID: FK&lt;/b&gt;&lt;/div&gt;&lt;div&gt;&lt;b&gt;RoutID: FK (Optional)&lt;/b&gt;&lt;/div&gt;&lt;div&gt;Location&lt;/div&gt;&lt;div&gt;Type&lt;/div&gt;&lt;div&gt;DateCreated&lt;/div&gt;&lt;div&gt;Description&lt;/div&gt;" style="align=left;strokeColor=none;fillColor=none;spacingLeft=4;fontSize=12;verticalAlign=top;resizable=0;rotatable=0;part=1;html=1;" vertex="1" parent="e3_FNbKswb6onqGiZk8q-22">
          <mxGeometry y="50" width="160" height="110" as="geometry" />
        </mxCell>
        <mxCell id="e3_FNbKswb6onqGiZk8q-24" value="SOS Alert" style="swimlane;childLayout=stackLayout;horizontal=1;startSize=50;horizontalStack=0;rounded=1;fontSize=14;fontStyle=0;strokeWidth=2;resizeParent=0;resizeLast=1;shadow=0;dashed=0;align=center;arcSize=4;whiteSpace=wrap;html=1;" vertex="1" parent="1">
          <mxGeometry x="600" y="410" width="160" height="150" as="geometry" />
        </mxCell>
        <mxCell id="e3_FNbKswb6onqGiZk8q-25" value="&lt;b&gt;SOSAlertID: PK&lt;/b&gt;&lt;div&gt;&lt;b&gt;UserID: FK&lt;/b&gt;&lt;/div&gt;&lt;div&gt;Location&lt;/div&gt;&lt;div&gt;Message&lt;/div&gt;&lt;div&gt;TimeSent&lt;/div&gt;&lt;div&gt;Status&lt;/div&gt;" style="align=left;strokeColor=none;fillColor=none;spacingLeft=4;fontSize=12;verticalAlign=top;resizable=0;rotatable=0;part=1;html=1;" vertex="1" parent="e3_FNbKswb6onqGiZk8q-24">
          <mxGeometry y="50" width="160" height="100" as="geometry" />
        </mxCell>
        <mxCell id="e3_FNbKswb6onqGiZk8q-26" value="" style="edgeStyle=entityRelationEdgeStyle;fontSize=12;html=1;endArrow=ERzeroToOne;endFill=1;rounded=0;exitX=0;exitY=0.75;exitDx=0;exitDy=0;entryX=1;entryY=0.25;entryDx=0;entryDy=0;" edge="1" parent="1" source="MAbu34ratZvczZtb9zTz-4" target="e3_FNbKswb6onqGiZk8q-17">
          <mxGeometry width="100" height="100" relative="1" as="geometry">
            <mxPoint x="310" y="660" as="sourcePoint" />
            <mxPoint x="410" y="560" as="targetPoint" />
          </mxGeometry>
        </mxCell>
        <mxCell id="e3_FNbKswb6onqGiZk8q-27" value="" style="edgeStyle=entityRelationEdgeStyle;fontSize=12;html=1;endArrow=ERzeroToMany;endFill=1;startArrow=ERzeroToMany;rounded=0;entryX=0;entryY=0;entryDx=0;entryDy=0;exitX=1;exitY=0.25;exitDx=0;exitDy=0;" edge="1" parent="1" source="e3_FNbKswb6onqGiZk8q-15" target="MAbu34ratZvczZtb9zTz-4">
          <mxGeometry width="100" height="100" relative="1" as="geometry">
            <mxPoint x="310" y="660" as="sourcePoint" />
            <mxPoint x="410" y="560" as="targetPoint" />
          </mxGeometry>
        </mxCell>
        <mxCell id="e3_FNbKswb6onqGiZk8q-28" value="" style="edgeStyle=entityRelationEdgeStyle;fontSize=12;html=1;endArrow=ERzeroToMany;endFill=1;startArrow=ERzeroToMany;rounded=0;entryX=0;entryY=0.25;entryDx=0;entryDy=0;exitX=1;exitY=0.25;exitDx=0;exitDy=0;" edge="1" parent="1" source="MAbu34ratZvczZtb9zTz-4" target="e3_FNbKswb6onqGiZk8q-21">
          <mxGeometry width="100" height="100" relative="1" as="geometry">
            <mxPoint x="310" y="660" as="sourcePoint" />
            <mxPoint x="410" y="560" as="targetPoint" />
          </mxGeometry>
        </mxCell>
        <mxCell id="e3_FNbKswb6onqGiZk8q-29" value="" style="edgeStyle=entityRelationEdgeStyle;fontSize=12;html=1;endArrow=ERzeroToMany;endFill=1;startArrow=ERzeroToMany;rounded=0;entryX=0;entryY=0.25;entryDx=0;entryDy=0;exitX=1;exitY=0.25;exitDx=0;exitDy=0;" edge="1" parent="1" source="MAbu34ratZvczZtb9zTz-3" target="e3_FNbKswb6onqGiZk8q-23">
          <mxGeometry width="100" height="100" relative="1" as="geometry">
            <mxPoint x="310" y="660" as="sourcePoint" />
            <mxPoint x="410" y="560" as="targetPoint" />
          </mxGeometry>
        </mxCell>
        <mxCell id="e3_FNbKswb6onqGiZk8q-30" value="" style="edgeStyle=orthogonalEdgeStyle;fontSize=12;html=1;endArrow=ERzeroToOne;endFill=1;rounded=0;entryX=0;entryY=0.25;entryDx=0;entryDy=0;exitX=0;exitY=0.25;exitDx=0;exitDy=0;" edge="1" parent="1" source="e3_FNbKswb6onqGiZk8q-17" target="e3_FNbKswb6onqGiZk8q-15">
          <mxGeometry width="100" height="100" relative="1" as="geometry">
            <mxPoint x="30" y="470" as="sourcePoint" />
            <mxPoint x="410" y="560" as="targetPoint" />
            <Array as="points">
              <mxPoint x="100" y="410" />
              <mxPoint x="40" y="410" />
              <mxPoint x="40" y="190" />
              <mxPoint x="60" y="190" />
              <mxPoint x="60" y="187" />
            </Array>
          </mxGeometry>
        </mxCell>
        <mxCell id="e3_FNbKswb6onqGiZk8q-32" value="" style="edgeStyle=entityRelationEdgeStyle;fontSize=12;html=1;endArrow=ERzeroToOne;startArrow=ERmandOne;rounded=0;exitX=1;exitY=0.75;exitDx=0;exitDy=0;entryX=0;entryY=0.25;entryDx=0;entryDy=0;" edge="1" parent="1" source="MAbu34ratZvczZtb9zTz-4" target="e3_FNbKswb6onqGiZk8q-25">
          <mxGeometry width="100" height="100" relative="1" as="geometry">
            <mxPoint x="360" y="330" as="sourcePoint" />
            <mxPoint x="460" y="230" as="targetPoint" />
          </mxGeometry>
        </mxCell>
        <mxCell id="e3_FNbKswb6onqGiZk8q-34" value="" style="edgeStyle=entityRelationEdgeStyle;fontSize=12;html=1;endArrow=ERzeroToMany;endFill=1;startArrow=ERzeroToMany;rounded=0;entryX=0.001;entryY=0.138;entryDx=0;entryDy=0;entryPerimeter=0;exitX=0.992;exitY=0.167;exitDx=0;exitDy=0;exitPerimeter=0;" edge="1" parent="1" source="e3_FNbKswb6onqGiZk8q-14" target="e3_FNbKswb6onqGiZk8q-22">
          <mxGeometry width="100" height="100" relative="1" as="geometry">
            <mxPoint x="250" y="50" as="sourcePoint" />
            <mxPoint x="460" y="230" as="targetPoint" />
            <Array as="points">
              <mxPoint x="430" y="30" />
            </Array>
          </mxGeometry>
        </mxCell>
        <mxCell id="e3_FNbKswb6onqGiZk8q-35" value="Communication" style="swimlane;childLayout=stackLayout;horizontal=1;startSize=50;horizontalStack=0;rounded=1;fontSize=14;fontStyle=0;strokeWidth=2;resizeParent=0;resizeLast=1;shadow=0;dashed=0;align=center;arcSize=4;whiteSpace=wrap;html=1;" vertex="1" parent="1">
          <mxGeometry x="340" y="425" width="160" height="135" as="geometry" />
        </mxCell>
        <mxCell id="e3_FNbKswb6onqGiZk8q-36" value="&lt;b&gt;MessageID: PK&lt;/b&gt;&lt;div&gt;&lt;b&gt;FromUserID: FK&lt;/b&gt;&lt;/div&gt;&lt;div&gt;&lt;b&gt;ToUserID: FK&lt;/b&gt;&lt;/div&gt;&lt;div&gt;Message&lt;/div&gt;&lt;div&gt;TimeSent&lt;/div&gt;" style="align=left;strokeColor=none;fillColor=none;spacingLeft=4;fontSize=12;verticalAlign=top;resizable=0;rotatable=0;part=1;html=1;" vertex="1" parent="e3_FNbKswb6onqGiZk8q-35">
          <mxGeometry y="50" width="160" height="85" as="geometry" />
        </mxCell>
        <mxCell id="e3_FNbKswb6onqGiZk8q-37" value="" style="edgeStyle=orthogonalEdgeStyle;fontSize=12;html=1;endArrow=ERmandOne;startArrow=ERmandOne;rounded=0;exitX=0.5;exitY=1;exitDx=0;exitDy=0;entryX=0.5;entryY=0;entryDx=0;entryDy=0;strokeColor=default;" edge="1" parent="1" source="MAbu34ratZvczZtb9zTz-4" target="e3_FNbKswb6onqGiZk8q-35">
          <mxGeometry width="100" height="100" relative="1" as="geometry">
            <mxPoint x="340" y="470" as="sourcePoint" />
            <mxPoint x="440" y="370" as="targetPoint" />
          </mxGeometry>
        </mxCell>
      </root>
    </mxGraphModel>
  </diagram>
</mxfile>
